<?xml version="1.0" encoding="UTF-8" standalone="no"?>
<svg
   xmlns:dc="http://purl.org/dc/elements/1.1/"
   xmlns:cc="http://creativecommons.org/ns#"
   xmlns:rdf="http://www.w3.org/1999/02/22-rdf-syntax-ns#"
   xmlns:svg="http://www.w3.org/2000/svg"
   xmlns="http://www.w3.org/2000/svg"
   xmlns:sodipodi="http://sodipodi.sourceforge.net/DTD/sodipodi-0.dtd"
   xmlns:inkscape="http://www.inkscape.org/namespaces/inkscape"
   viewBox="0 0 5593.7006 2570.0787"
   version="1.1"
   id="svg6"
   sodipodi:docname="ard.svg"
   width="1cm"
   height="1cm"
   inkscape:version="0.92.4 5da689c313, 2019-01-14">
  <metadata
     id="metadata12">
    <rdf:RDF>
      <cc:Work
         rdf:about="">
        <dc:format>image/svg+xml</dc:format>
        <dc:type
           rdf:resource="http://purl.org/dc/dcmitype/StillImage" />
        <dc:title></dc:title>
      </cc:Work>
    </rdf:RDF>
  </metadata>
  <defs
     id="defs10" />
  <sodipodi:namedview
     pagecolor="#ffffff"
     bordercolor="#666666"
     borderopacity="1"
     objecttolerance="10"
     gridtolerance="10"
     guidetolerance="10"
     inkscape:pageopacity="0"
     inkscape:pageshadow="2"
     inkscape:window-width="2560"
     inkscape:window-height="1312"
     id="namedview8"
     showgrid="false"
     units="cm"
     inkscape:zoom="13.882353"
     inkscape:cx="-3.8718254"
     inkscape:cy="11.274118"
     inkscape:window-x="0"
     inkscape:window-y="54"
     inkscape:window-maximized="1"
     inkscape:current-layer="svg6" />
  <path
     d="m 1266.4991,1308.6026 847.6877,-307.5512 V 2915.5575 L 3824.9402,2302.3773 V -244.53069 L 1266.4991,674.27844 Z"
     id="path2"
     style="fill:#0000ff;stroke-width:192.21948242"
     inkscape:connector-curvature="0"
     sodipodi:nodetypes="ccccccc" />
  <path
     d="m 1758.5808,3588.3256 c 671.5629,306.1288 1442.8513,306.1288 2114.4142,0 C 4961.9146,3091.0347 5557.076,1902.0611 5302.6025,732.46324 5048.1308,-437.11529 4012.8521,-1271.0019 2815.7879,-1271.0019 c -1197.064,0 -2232.34282,833.88661 -2486.81442,2003.46514 C 74.499858,1902.0611 669.66138,3091.0347 1758.5808,3588.3256 m 1053.3627,-144.1645 c -1933.53952,0 -2901.508728,-2337.562 -1534.4554,-3704.60759 1105.6388,-1105.64631 2846.1035,-683.89771 3471.3128,540.73263 147.8224,289.54021 233.3005,623.9829 233.3005,993.71696 -0.9611,1200.7951 -977.0516,2172.4839 -2177.8466,2168.2358 z"
     id="path4"
     style="fill:#0000ff;stroke-width:192.21948242"
     inkscape:connector-curvature="0"
     sodipodi:nodetypes="ccsssccssccc" />
</svg>
