<?xml version="1.0" encoding="iso-8859-1"?>
<!-- Generator: Adobe Illustrator 16.0.0, SVG Export Plug-In . SVG Version: 6.00 Build 0)  -->
<!DOCTYPE svg PUBLIC "-//W3C//DTD SVG 1.1//EN" "http://www.w3.org/Graphics/SVG/1.1/DTD/svg11.dtd">
<svg version="1.1" id="Capa_1" xmlns="http://www.w3.org/2000/svg" xmlns:xlink="http://www.w3.org/1999/xlink" x="0px" y="0px"
	 width="50.001px" height="50px" viewBox="0 0 50.001 50" style="enable-background:new 0 0 50.001 50;" xml:space="preserve">
<g>
	<path d="M42.857,13.925h-5.816c0-8.358-6.964-8.358-12.048-8.358c-6.317,0-8.896-0.465-8.896-5.205h-3.139
		c0,8.346,6.966,8.346,12.034,8.346c6.331,0,8.895,0.477,8.895,5.218H7.143C3.214,13.925,0,17.139,0,21.067v21.43
		c0,3.928,3.214,7.143,7.143,7.143h35.714c3.93,0,7.144-3.215,7.144-7.143v-21.43C50,17.139,46.786,13.925,42.857,13.925z
		 M21.861,21.575c0-0.706,0.581-1.282,1.284-1.282h3.708c0.703,0,1.285,0.576,1.285,1.282v3.709c0,0.705-0.582,1.284-1.285,1.284
		h-3.708c-0.703,0-1.284-0.579-1.284-1.284V21.575z M21.861,29.928c0-0.703,0.581-1.285,1.284-1.285h3.708
		c0.703,0,1.285,0.582,1.285,1.285v3.707c0,0.703-0.582,1.285-1.285,1.285h-3.708c-0.703,0-1.284-0.582-1.284-1.285V29.928z
		 M13.431,21.575c0-0.706,0.576-1.282,1.28-1.282h3.71c0.706,0,1.287,0.576,1.287,1.282v3.709c0,0.705-0.581,1.284-1.287,1.284
		h-3.71c-0.704,0-1.28-0.579-1.28-1.284V21.575z M13.431,29.928c0-0.703,0.576-1.285,1.28-1.285h3.71
		c0.706,0,1.287,0.582,1.287,1.285v3.707c0,0.703-0.581,1.285-1.287,1.285h-3.71c-0.704,0-1.28-0.582-1.28-1.285V29.928z
		 M11.272,41.986c0,0.706-0.578,1.284-1.282,1.284H6.28C5.576,43.27,5,42.692,5,41.986v-3.708c0-0.705,0.576-1.283,1.28-1.283h3.71
		c0.704,0,1.282,0.578,1.282,1.283V41.986z M11.272,33.635c0,0.703-0.578,1.285-1.282,1.285H6.28C5.576,34.92,5,34.338,5,33.635
		v-3.707c0-0.703,0.576-1.285,1.28-1.285h3.71c0.704,0,1.282,0.582,1.282,1.285V33.635z M11.272,25.284
		c0,0.705-0.578,1.284-1.282,1.284H6.28c-0.704,0-1.28-0.579-1.28-1.284v-3.709c0-0.706,0.576-1.282,1.28-1.282h3.71
		c0.704,0,1.282,0.576,1.282,1.282V25.284z M36.568,41.986c0,0.706-0.576,1.284-1.281,1.284H14.711c-0.704,0-1.28-0.578-1.28-1.284
		v-3.708c0-0.705,0.576-1.283,1.28-1.283h20.576c0.705,0,1.281,0.578,1.281,1.283V41.986z M36.568,33.635
		c0,0.703-0.576,1.285-1.281,1.285h-3.709c-0.706,0-1.286-0.582-1.286-1.285v-3.707c0-0.703,0.58-1.285,1.286-1.285h3.709
		c0.705,0,1.281,0.582,1.281,1.285V33.635z M36.568,25.284c0,0.705-0.576,1.284-1.281,1.284h-3.709
		c-0.706,0-1.286-0.579-1.286-1.284v-3.709c0-0.706,0.58-1.282,1.286-1.282h3.709c0.705,0,1.281,0.576,1.281,1.282V25.284z
		 M45,41.986c0,0.706-0.577,1.284-1.282,1.284h-3.709c-0.704,0-1.28-0.578-1.28-1.284v-3.708c0-0.705,0.576-1.283,1.28-1.283h3.709
		c0.705,0,1.282,0.578,1.282,1.283V41.986z M45,33.635c0,0.703-0.577,1.285-1.282,1.285h-3.709c-0.704,0-1.28-0.582-1.28-1.285
		v-3.707c0-0.703,0.576-1.285,1.28-1.285h3.709c0.705,0,1.282,0.582,1.282,1.285V33.635z M45,25.284
		c0,0.705-0.577,1.284-1.282,1.284h-3.709c-0.704,0-1.28-0.579-1.28-1.284v-3.709c0-0.706,0.576-1.282,1.28-1.282h3.709
		c0.705,0,1.282,0.576,1.282,1.282V25.284z"/>
</g>
<g>
</g>
<g>
</g>
<g>
</g>
<g>
</g>
<g>
</g>
<g>
</g>
<g>
</g>
<g>
</g>
<g>
</g>
<g>
</g>
<g>
</g>
<g>
</g>
<g>
</g>
<g>
</g>
<g>
</g>
</svg>
