<?xml version="1.0" encoding="UTF-8" standalone="no"?>
<svg
   xmlns:dc="http://purl.org/dc/elements/1.1/"
   xmlns:cc="http://creativecommons.org/ns#"
   xmlns:rdf="http://www.w3.org/1999/02/22-rdf-syntax-ns#"
   xmlns:svg="http://www.w3.org/2000/svg"
   xmlns="http://www.w3.org/2000/svg"
   xmlns:xlink="http://www.w3.org/1999/xlink"
   version="1.0"
   id="svg2"
   height="256"
   width="256">
  <defs
     id="defs4">
    <linearGradient
       id="linearGradient2555">
      <stop
         id="stop2557"
         offset="0"
         style="stop-color: rgb(255, 255, 255); stop-opacity: 1;" />
      <stop
         id="stop2559"
         offset="1"
         style="stop-color: rgb(255, 255, 255); stop-opacity: 0;" />
    </linearGradient>
    <linearGradient
       y2="425.39993"
       x2="-395.84943"
       y1="274.711"
       x1="-344.15295"
       gradientTransform="matrix(-0.5914583,0,0,0.5914584,210.0216,142.2324)"
       gradientUnits="userSpaceOnUse"
       id="linearGradient2449"
       xlink:href="#linearGradient2555" />
  </defs>
  <metadata
     id="metadata7">
    <rdf:RDF>
      <cc:Work
         rdf:about="">
        <dc:format>image/svg+xml</dc:format>
        <dc:type
           rdf:resource="http://purl.org/dc/dcmitype/StillImage" />
        <dc:title></dc:title>
        <dc:creator>
          <cc:Agent>
            <dc:title>User:ZyMOS</dc:title>
          </cc:Agent>
        </dc:creator>
        <dc:subject>
          <rdf:Bag />
        </dc:subject>
        <cc:license
           rdf:resource="http://creativecommons.org/licenses/publicdomain/" />
        <dc:description />
        <dc:contributor>
          <cc:Agent>
            <dc:title />
          </cc:Agent>
        </dc:contributor>
        <dc:publisher>
          <cc:Agent>
            <dc:title>Open Icon Library</dc:title>
          </cc:Agent>
        </dc:publisher>
      </cc:Work>
      <cc:License
         rdf:about="http://creativecommons.org/licenses/publicdomain/">
        <cc:permits
           rdf:resource="http://creativecommons.org/ns#Reproduction" />
        <cc:permits
           rdf:resource="http://creativecommons.org/ns#Distribution" />
        <cc:permits
           rdf:resource="http://creativecommons.org/ns#DerivativeWorks" />
      </cc:License>
    </rdf:RDF>
  </metadata>
  <g
     transform="translate(-373.642,-318.344)"
     id="layer1">
    <rect
       style="fill:#00dbff;fill-opacity:1;fill-rule:evenodd;stroke:none;stroke-width:0.87500000000000000;stroke-linecap:square;stroke-linejoin:miter;stroke-miterlimit:4;stroke-dasharray:0.87500000000000000, 1.75000000000000000;stroke-dashoffset:0;stroke-opacity:1"
       id="rect1942"
       width="235.00784"
       height="234.98955"
       x="-619.14587"
       y="328.84921"
       rx="35.487503"
       ry="35.487503"
       transform="scale(-1,1)" />
    <path
       style="opacity:1;fill:url(#linearGradient2449);fill-opacity:1;fill-rule:evenodd;stroke:none;stroke-width:0.87500000000000000;stroke-linecap:square;stroke-linejoin:miter;stroke-miterlimit:4;stroke-dasharray:0.87500000000000000, 1.75000000000000000;stroke-dashoffset:0;stroke-opacity:1"
       d="M 557.05665,338.89518 L 446.22721,338.89518 C 416.89033,338.89518 393.27256,362.70492 393.27256,392.28025 L 393.27256,500.40761 C 394.22216,523.49366 397.87485,508.89915 404.82758,483.3329 C 412.90814,453.61975 439.22406,427.65003 471.27219,408.1872 C 495.73352,393.33195 523.11328,383.84595 572.95174,382.94353 C 601.21656,382.43177 598.72124,346.26062 557.05665,338.89518 z"
       id="path1950" />
    <path
       id="path9951"
       d="m 407.51456,418.71714 c 20.36065,-18.26869 38.5373,-50.1058 59.63915,-43.49374 34.97004,9.05104 19.86115,75.94774 39.73277,107.22334 27.21613,-15.34824 44.87532,-47.63468 37.53937,-64.3886 -1.64052,-4.68205 0.3562,-16.35841 -21.98768,-6.15753 -5.79957,2.64773 -5.5624,-7.61098 -4.54176,-8.99938 20.68678,-22.73212 32.63315,-32.21383 46.78872,-31.63182 11.90426,1.9887 32.8395,15.3654 28.99583,47.44772 -7.96729,47.73745 -78.05806,122.69948 -101.4854,119.93729 -26.82107,5.91679 -40.45673,-78.81619 -60.62764,-118.61929 l -18.45832,7.14216 c -7.60606,1.19868 -6.55648,-3.66159 -5.59504,-8.46015 z"
       style="fill:#ffffff;fill-opacity:1;stroke:none" />
  </g>
</svg>
