<?xml version="1.0" encoding="UTF-8" standalone="no"?>
<!-- Generator: Adobe Illustrator 19.1.0, SVG Export Plug-In . SVG Version: 6.00 Build 0)  -->

<svg
   xmlns:dc="http://purl.org/dc/elements/1.1/"
   xmlns:cc="http://creativecommons.org/ns#"
   xmlns:rdf="http://www.w3.org/1999/02/22-rdf-syntax-ns#"
   xmlns:svg="http://www.w3.org/2000/svg"
   xmlns="http://www.w3.org/2000/svg"
   xmlns:sodipodi="http://sodipodi.sourceforge.net/DTD/sodipodi-0.dtd"
   xmlns:inkscape="http://www.inkscape.org/namespaces/inkscape"
   version="1.1"
   id="Ebene_1"
   x="0px"
   y="0px"
   viewBox="496 -272 600 600"
   xml:space="preserve"
   sodipodi:docname="zdf.svg"
   width="600"
   height="600"
   inkscape:version="0.92.4 5da689c313, 2019-01-14"><metadata
   id="metadata21"><rdf:RDF><cc:Work
       rdf:about=""><dc:format>image/svg+xml</dc:format><dc:type
         rdf:resource="http://purl.org/dc/dcmitype/StillImage" /><dc:title></dc:title></cc:Work></rdf:RDF></metadata><defs
   id="defs19" /><sodipodi:namedview
   pagecolor="#ffffff"
   bordercolor="#666666"
   borderopacity="1"
   objecttolerance="10"
   gridtolerance="10"
   guidetolerance="10"
   inkscape:pageopacity="0"
   inkscape:pageshadow="2"
   inkscape:window-width="2560"
   inkscape:window-height="1312"
   id="namedview17"
   showgrid="false"
   inkscape:zoom="0.78666667"
   inkscape:cx="255.31356"
   inkscape:cy="150"
   inkscape:window-x="0"
   inkscape:window-y="54"
   inkscape:window-maximized="1"
   inkscape:current-layer="Ebene_1" />
<style
   type="text/css"
   id="style2">
	.st0{display:none;}
	.st1{display:inline;fill:#7D7D7D;}
	.st2{fill:#FA7D19;}
	.st3{fill:#FFFFFF;}
</style>
<g
   id="Ebene_13"
   class="st0"
   style="display:none"
   transform="translate(0,300)">
	<rect
   x="496"
   y="-272"
   class="st1"
   width="1024"
   height="576"
   id="rect4"
   style="display:inline;fill:#7d7d7d" />
</g>
<g
   id="ZDFsport_x5F_de"
   transform="matrix(1.1652586,0,0,1.1652586,-74.20241,176.35287)">
	<g
   id="g13">
		<path
   class="st2"
   d="M 950.2,-164.8 H 999 V -188 h -58.7 c -31.6,0 -44.6,17.7 -44.6,45.4 v 2.7 C 890.4,-172.5 871,-188 835.5,-188 H 776 c -24,-48 -73.5,-81 -130.9,-81 -80.6,0 -146.1,65.5 -146.1,146.2 0,80.7 65.5,146.1 146.1,146.1 57,0 106.3,-32.5 130.4,-80 h 60.7 c 14.5,0 27.6,-0.9 40.9,-11.5 9.6,-7.6 15.6,-18.4 18.4,-32.5 v 43.8 h 27.8 v -51.5 H 989 v -22.9 h -65.8 l 0.4,-9.3 c 0.1,-15.1 4.7,-24.2 26.6,-24.2 z m -115.3,84.9 h -30.7 v -84.9 h 30.7 c 24.1,0 32.8,10.3 32.8,42.5 0,32.1 -8.6,42.4 -32.8,42.4 z"
   id="path7"
   inkscape:connector-curvature="0"
   style="fill:#fa7d19" />
		<g
   id="g11">
			<path
   class="st3"
   d="M 709.8,-133.7 H 728 c 14.4,0 22.9,-2.9 22.9,-15.1 0,-12.6 -8.5,-16.1 -23.3,-16.1 H 666.1 V -188 h 71.6 c 36.3,0 41.5,25.4 41.5,39.6 0,15.1 -6.2,39 -41.5,39 h -17.6 c -22,0 -26.7,7.9 -26.7,23 v 7 h 82.2 V -57 H 665.3 v -32.5 c 0,-27.8 13,-44.2 44.5,-44.2 z"
   id="path9"
   inkscape:connector-curvature="0"
   style="fill:#ffffff" />
		</g>
	</g>
</g>
</svg>